<?xml version="1.0" encoding="utf-8" ?>
<svg xmlns="http://www.w3.org/2000/svg" xmlns:xlink="http://www.w3.org/1999/xlink" width="1024" height="1024">
	<path transform="scale(2 2)" d="M340.794 263.191C326.82 252.961 310.558 255.823 294.467 255.154C243.084 253.016 179.429 249.868 169.603 186.253C165.345 158.683 167.464 120.198 184.496 97.0393C200.768 74.9127 229.63 67.0178 255.5 63.1703C298.722 56.7424 384.295 56.0155 421.925 83.8467C465.314 115.938 464.975 203.741 421.41 233.357C412.647 239.313 406.893 239.411 402.295 250.294C399.16 257.715 397.206 267.8 395.307 275.738C393.781 282.121 393.344 291.233 385.105 292.314C379.122 293.099 367.259 280.533 362.32 276.736C357.178 272.784 351.705 269.357 346.439 265.586C347.36 268.709 347.814 271.973 348.376 275.176C355.398 282.82 353.74 292.598 353.736 302.269L353.73 374.096C353.747 408.715 352.518 420.01 314.91 420.004L203.553 419.998C171.41 419.983 180.997 416.326 155.958 438.195C150.369 443.078 137.13 459.726 131.656 446.745C129.363 448.727 127.103 450.491 123.925 450.477C113.055 450.429 114.044 441.37 114.015 433.25C113.998 428.609 113.837 423.978 114 419.337C102.362 420.111 89.6814 420.242 80.4881 412.358C56.7344 400.228 58.2593 384.912 58.2561 360.694L58.2527 281.74C58.241 276.079 57.6952 269.795 58.4899 264.2C61.8701 240.403 81.1785 237.493 100.097 237.488L172.882 237.513C176.42 237.519 196.108 235.762 196.337 239.514C196.567 243.289 189.662 241.966 187.441 241.972L117.055 242.002C96.858 242.002 67.0226 237.306 62.9727 265.174C62.1716 270.686 62.7204 276.71 62.7289 282.287L62.7251 359.76C62.7189 374.725 59.8901 392.11 73.1537 402.755C72.9508 401.79 68.4347 396.859 67.4994 395.441C61.9066 386.962 62.7251 376.138 62.7205 366.459L62.7233 304.223C62.7221 297.471 62.1297 276.549 63.8493 270.658C64.5564 268.235 68.6354 271.003 65.905 267.261C63.8371 269.994 65.0101 261.527 65.8298 265.726L66.1736 265.508C66.7002 264.09 66.2392 261.573 67.3848 260.591L68.4123 260.769C69.1374 260.454 69.8559 260.383 70.631 260.284L70.8028 260.504L70.3078 260.904C70.4065 261.767 70.3959 262.488 70.2546 263.347L70.2095 263.607C71.4899 262.878 72.1339 260.467 73.6401 260.227L74.0489 260.674L73.672 260.794L73.8153 261.1L73.3354 260.856L73.2279 261.04L73.4164 261.688C69.996 266.958 71.1557 272.957 71.1996 278.833C71.3267 295.84 70.8836 312.86 70.9064 329.874L70.9999 355.399C70.9549 365.673 69.8926 392.7 73.3311 399.43L73.5078 399.34C69.9629 389.543 71.2071 378.292 71.2042 368.041L71.1966 293.032C71.192 276.709 68.6494 255.24 89.7724 250.82C95.8226 249.554 107.431 250.269 114.022 250.273L194.915 250.275C210.478 250.36 207.168 250.776 222.048 255.168C247.749 262.755 274.721 263.96 301.341 264.917C314.63 265.394 331.492 263.292 343.182 271.029C342.581 268.342 341.998 265.686 340.794 263.191ZM194.39 285.239C188.867 279.329 177.361 281.44 169.621 281.451L118.64 281.455C114.995 281.456 111.139 281.22 107.525 281.658C100.89 282.462 98.534 291.088 105.435 295.682C105.987 292.834 104.727 290.287 107.157 287.703C110.216 284.448 115.63 285.23 119.664 285.228L173.93 285.238C180.701 285.243 187.639 285.617 194.39 285.239ZM350.94 263.191C358.893 267.739 366.361 273.587 373.368 279.46C377.368 282.814 381.381 289.549 387.183 286.875C393.298 275.295 392.199 256.383 400.971 242.631C405.553 235.447 417.322 231.763 424.649 224.977C461.509 190.841 458.638 107.219 409.559 81.4827C380.844 66.425 329.274 63.0211 295.963 64.2458C261.375 67.0592 215.132 68.1649 191.131 96.4341C173.733 116.925 171.074 150.874 173.271 176.742C179.525 250.343 253.516 250.799 310.691 250.251C325.554 250.108 338.512 255.237 350.94 263.191Z"/>
	<path fill="#EDF2F4" transform="scale(2 2)" d="M73.1537 402.755C72.9508 401.79 68.4347 396.859 67.4994 395.441C61.9066 386.962 62.7251 376.138 62.7205 366.459L62.7233 304.223C62.7221 297.471 62.1297 276.549 63.8493 270.658C64.5564 268.235 68.6354 271.003 65.905 267.261C63.8371 269.994 65.0101 261.527 65.8298 265.726L66.1736 265.508C66.7002 264.09 66.2392 261.573 67.3848 260.591L68.4123 260.769C69.1374 260.454 69.8559 260.383 70.631 260.284L70.8028 260.504L70.3078 260.904C70.4065 261.767 70.3959 262.488 70.2546 263.347L70.2095 263.607C71.4899 262.878 72.1339 260.467 73.6401 260.227L74.0489 260.674L73.672 260.794L73.8153 261.1L73.3354 260.856L73.2279 261.04L73.4164 261.688C69.996 266.958 71.1557 272.957 71.1996 278.833C71.3267 295.84 70.8836 312.86 70.9064 329.874L70.9999 355.399C70.9549 365.673 69.8926 392.7 73.3311 399.43L73.5078 399.34C69.9629 389.543 71.2071 378.292 71.2042 368.041L71.1966 293.032C71.192 276.709 68.6494 255.24 89.7724 250.82C95.8226 249.554 107.431 250.269 114.022 250.273L194.915 250.275C210.478 250.36 207.168 250.776 222.048 255.168C247.749 262.755 274.721 263.96 301.341 264.917C314.63 265.394 331.492 263.292 343.182 271.029C344.235 280.459 343.917 289.961 343.915 299.435L343.917 366.909C343.923 372.776 344.327 379.001 343.441 384.8C340.306 405.319 324.776 409.228 307.678 409.233L186.508 409.216C169.666 409.209 171.424 406.785 158.097 418.206C150.28 424.905 132.432 441.877 124.742 446.745C116.867 446.536 118.256 438.053 118.274 432.615C118.293 427.071 118.385 421.518 118.29 415.976C112.489 399.918 86.6272 417.637 73.1537 402.755ZM194.39 285.239C188.867 279.329 177.361 281.44 169.621 281.451L118.64 281.455C114.995 281.456 111.139 281.22 107.525 281.658C100.89 282.462 98.534 291.088 105.435 295.682C105.987 292.834 104.727 290.287 107.157 287.703C110.216 284.448 115.63 285.23 119.664 285.228L173.93 285.238C180.701 285.243 187.639 285.617 194.39 285.239Z"/>
	<path fill="#EDF2F4" transform="scale(2 2)" d="M118.29 415.976C127.379 414.272 124.98 439.943 124.742 446.745C116.867 446.536 118.256 438.053 118.274 432.615C118.293 427.071 118.385 421.518 118.29 415.976Z"/>
	<path transform="scale(2 2)" d="M110.161 301.379C95.8264 299.758 92.8091 285.329 102.594 278.917C107.553 275.667 117.928 277.1 123.613 277.1L176.358 277.108C186.813 277.114 192.404 275.19 198.486 285.239C201.207 287.841 202.943 290.722 202.98 294.62C203.09 306.376 189.391 305.164 181.163 305.087C178.935 305.342 176.482 305.1 174.226 305.098L133.316 305.094C128.468 305.093 112.026 306.81 110.161 301.379ZM194.39 285.239C188.867 279.329 177.361 281.44 169.621 281.451L118.64 281.455C114.995 281.456 111.139 281.22 107.525 281.658C100.89 282.462 98.534 291.088 105.435 295.682C105.987 292.834 104.727 290.287 107.157 287.703C110.216 284.448 115.63 285.23 119.664 285.228L173.93 285.238C180.701 285.243 187.639 285.617 194.39 285.239Z"/>
	<path transform="scale(2 2)" d="M110.161 301.379C130.725 301.158 152.19 300.947 172.738 301.379C174.037 301.952 177.22 301.481 177.89 302.488C177.001 306.423 175.481 304.15 172.092 304.841C175.077 304.921 178.21 304.71 181.163 305.087C178.935 305.342 176.482 305.1 174.226 305.098L133.316 305.094C128.468 305.093 112.026 306.81 110.161 301.379Z"/>
	<path transform="scale(2 2)" d="M198.486 285.239C201.207 287.841 202.943 290.722 202.98 294.62C203.09 306.376 189.391 305.164 181.163 305.087C178.21 304.71 175.077 304.921 172.092 304.841C175.481 304.15 177.001 306.423 177.89 302.488C177.22 301.481 174.037 301.952 172.738 301.379C186.619 301.275 200.467 304.258 198.486 285.239Z"/>
	<path transform="scale(2 2)" d="M105.435 295.682C105.987 292.834 104.727 290.287 107.157 287.703C110.216 284.448 115.63 285.23 119.664 285.228L173.93 285.238C180.701 285.243 187.639 285.617 194.39 285.239C199.125 299.939 181.113 297.258 173.108 297.252L124.92 297.25C120.004 297.254 109.696 298.421 105.435 295.682Z"/>
	<path transform="scale(2 2)" d="M109.024 365.755C94.359 364.252 94.037 347.924 104.102 343.784C108.599 341.935 120.125 342.834 125.08 342.831L173.511 342.828C183.388 342.831 194.287 340.292 198.486 351.771C203.372 355.568 204.509 362.32 200.337 367.228C196.078 372.239 184.387 370.277 178.466 370.274L125.645 370.281C119.193 370.284 113.409 371.647 109.024 365.755Z"/>
	<path fill="#EDF2F4" transform="scale(2 2)" d="M198.486 351.771C203.372 355.568 204.509 362.32 200.337 367.228C196.078 372.239 184.387 370.277 178.466 370.274L125.645 370.281C119.193 370.284 113.409 371.647 109.024 365.755C115.298 365.456 121.72 365.749 128.009 365.752L163.61 365.761C177.569 365.762 199.211 370.544 198.486 351.771Z"/>
	<path fill="#EDF2F4" transform="scale(2 2)" d="M106.786 361.224C100.644 358.9 98.8415 351.697 104.792 348.191C108.072 346.258 120.229 347.233 124.153 347.232L175.022 347.231C183.109 347.233 190.38 344.677 194.39 352.475C197.024 362.86 183.983 361.268 178.195 361.235L125.223 361.225C119.106 361.226 112.892 361.456 106.786 361.224Z"/>
	<path fill="#EDF2F4" transform="scale(2 2)" d="M106.786 361.224C100.644 358.9 98.8415 351.697 104.792 348.191C108.072 346.258 120.229 347.233 124.153 347.232L175.022 347.231C183.109 347.233 190.38 344.677 194.39 352.475L121.235 352.468C115.479 352.471 106.537 350.448 106.772 358.83C106.794 359.607 106.977 360.478 106.786 361.224Z"/>
	<path transform="scale(2 2)" d="M109.024 331.93C100.261 331.297 93.6668 323.919 98.8002 315.146C103.143 307.724 112.281 309.573 119.519 309.568L172.24 309.557C180.938 309.56 195.688 307.03 198.486 318.418C200.862 320.43 202.598 322.539 202.93 325.769C204.253 338.665 189.729 337.491 181.163 336.787C172.953 336.789 116.759 337.409 113.579 336.302C111.582 335.607 109.873 333.828 109.024 331.93Z"/>
	<path transform="scale(2 2)" d="M109.024 331.93C100.261 331.297 93.6668 323.919 98.8002 315.146C103.143 307.724 112.281 309.573 119.519 309.568L172.24 309.557C180.938 309.56 195.688 307.03 198.486 318.418C200.862 320.43 202.598 322.539 202.93 325.769C204.253 338.665 189.729 337.491 181.163 336.787C181.575 335.556 183.555 333.118 184.829 332.533C171.061 332.219 183.567 315.061 187.236 327.272C193.598 327.5 196.417 321.604 193.267 317.456C186.715 317.703 180.071 317.458 173.51 317.455L120.843 317.45C112.537 317.454 105.456 316.974 105.435 327.272C108.873 327.598 109.554 323.286 112.903 323.663C116.271 324.042 119.623 330.568 109.024 331.93Z"/>
	<path fill="#EDF2F4" transform="scale(2 2)" d="M105.435 327.272C103.06 325.709 101.138 323.276 101.38 320.276C102.126 311.013 116.244 313.701 122.376 313.7L175.88 313.709C181.939 313.711 189.08 312 193.267 317.456C186.715 317.703 180.071 317.458 173.51 317.455L120.843 317.45C112.537 317.454 105.456 316.974 105.435 327.272Z"/>
	<path transform="scale(2 2)" d="M198.486 318.418C200.862 320.43 202.598 322.539 202.93 325.769C204.253 338.665 189.729 337.491 181.163 336.787C181.575 335.556 183.555 333.118 184.829 332.533C192.798 328.917 198.323 333.949 198.486 318.418Z"/>
	<path transform="scale(2 2)" d="M135.928 323.68Q136.031 323.668 136.135 323.661Q136.239 323.654 136.343 323.652Q136.447 323.65 136.551 323.654Q136.655 323.657 136.759 323.665Q136.863 323.674 136.966 323.687Q137.069 323.701 137.172 323.719Q137.274 323.738 137.375 323.761Q137.477 323.785 137.577 323.813Q137.677 323.842 137.776 323.875Q137.874 323.909 137.971 323.947Q138.068 323.985 138.163 324.028Q138.257 324.071 138.35 324.118Q138.443 324.166 138.533 324.218Q138.623 324.27 138.71 324.326Q138.798 324.383 138.882 324.443Q138.967 324.504 139.049 324.569Q139.13 324.634 139.208 324.702Q139.286 324.771 139.361 324.843Q139.436 324.916 139.507 324.992Q139.578 325.068 139.645 325.147Q139.713 325.227 139.776 325.309Q139.839 325.392 139.898 325.478Q139.958 325.563 140.012 325.652Q140.067 325.74 140.118 325.831Q140.168 325.922 140.214 326.016Q140.26 326.109 140.301 326.205Q140.343 326.3 140.379 326.398Q140.416 326.495 140.447 326.594Q140.479 326.693 140.506 326.794Q140.532 326.895 140.554 326.996Q140.576 327.098 140.593 327.201Q140.609 327.304 140.621 327.407Q140.633 327.51 140.639 327.614Q140.646 327.718 140.647 327.822Q140.649 327.926 140.645 328.03Q140.641 328.134 140.632 328.238Q140.624 328.342 140.61 328.445Q140.596 328.548 140.577 328.651Q140.558 328.753 140.534 328.854Q140.51 328.956 140.481 329.056Q140.452 329.156 140.418 329.254Q140.384 329.353 140.346 329.449Q140.307 329.546 140.264 329.641Q140.221 329.735 140.173 329.828Q140.125 329.92 140.072 330.01Q140.02 330.1 139.963 330.187Q139.906 330.274 139.845 330.359Q139.784 330.443 139.719 330.524Q139.654 330.606 139.585 330.684Q139.516 330.761 139.443 330.836Q139.371 330.91 139.294 330.981Q139.218 331.052 139.138 331.119Q139.059 331.186 138.976 331.249Q138.893 331.312 138.807 331.371Q138.721 331.429 138.632 331.484Q138.544 331.538 138.452 331.588Q138.361 331.638 138.267 331.684Q138.174 331.729 138.078 331.77Q137.982 331.811 137.885 331.847Q137.787 331.883 137.688 331.915Q137.588 331.946 137.488 331.972Q137.387 331.999 137.285 332.02Q137.183 332.041 137.08 332.057Q136.977 332.074 136.874 332.085Q136.771 332.096 136.668 332.102Q136.564 332.108 136.461 332.109Q136.357 332.11 136.254 332.106Q136.15 332.102 136.047 332.093Q135.944 332.084 135.842 332.07Q135.739 332.056 135.637 332.037Q135.535 332.018 135.435 331.994Q135.334 331.969 135.235 331.94Q135.135 331.911 135.037 331.878Q134.94 331.844 134.844 331.805Q134.747 331.767 134.653 331.724Q134.559 331.68 134.467 331.633Q134.376 331.585 134.286 331.533Q134.197 331.48 134.11 331.424Q134.023 331.367 133.939 331.307Q133.855 331.246 133.775 331.181Q133.694 331.116 133.616 331.048Q133.539 330.979 133.465 330.907Q133.391 330.835 133.32 330.759Q133.25 330.683 133.183 330.604Q133.116 330.525 133.054 330.442Q132.991 330.36 132.932 330.274Q132.874 330.189 132.819 330.101Q132.765 330.013 132.715 329.922Q132.665 329.832 132.619 329.738Q132.574 329.645 132.533 329.55Q132.492 329.455 132.456 329.358Q132.42 329.261 132.388 329.163Q132.357 329.064 132.331 328.964Q132.304 328.864 132.282 328.763Q132.261 328.661 132.244 328.559Q132.228 328.457 132.216 328.354Q132.204 328.251 132.198 328.148Q132.191 328.044 132.19 327.941Q132.188 327.837 132.192 327.734Q132.196 327.63 132.204 327.527Q132.213 327.424 132.227 327.321Q132.24 327.219 132.259 327.117Q132.278 327.015 132.301 326.914Q132.325 326.813 132.354 326.714Q132.382 326.614 132.416 326.516Q132.449 326.418 132.487 326.322Q132.525 326.226 132.568 326.132Q132.611 326.037 132.658 325.945Q132.706 325.853 132.758 325.763Q132.809 325.674 132.866 325.587Q132.922 325.5 132.982 325.416Q133.042 325.332 133.107 325.25Q133.171 325.169 133.239 325.092Q133.308 325.014 133.38 324.939Q133.452 324.865 133.527 324.794Q133.603 324.723 133.682 324.656Q133.761 324.589 133.843 324.526Q133.925 324.463 134.01 324.404Q134.095 324.345 134.183 324.291Q134.271 324.236 134.362 324.185Q134.452 324.135 134.545 324.089Q134.638 324.043 134.733 324.002Q134.828 323.961 134.925 323.924Q135.021 323.888 135.12 323.856Q135.219 323.824 135.319 323.797Q135.419 323.77 135.52 323.748Q135.621 323.726 135.723 323.709Q135.825 323.692 135.928 323.68Z"/>
	<path transform="scale(2 2)" d="M149.411 323.963Q149.67 323.872 149.939 323.817Q150.207 323.761 150.481 323.742Q150.754 323.723 151.028 323.74Q151.302 323.757 151.571 323.811Q151.84 323.865 152.099 323.954Q152.359 324.043 152.604 324.166Q152.849 324.289 153.076 324.443Q153.303 324.598 153.507 324.781Q153.711 324.964 153.889 325.173Q154.067 325.382 154.215 325.613Q154.364 325.844 154.48 326.092Q154.597 326.341 154.679 326.603Q154.761 326.864 154.808 327.135Q154.854 327.405 154.865 327.679Q154.875 327.954 154.848 328.227Q154.822 328.5 154.759 328.767Q154.696 329.034 154.599 329.29Q154.501 329.547 154.37 329.788Q154.239 330.029 154.077 330.25Q153.915 330.472 153.725 330.669Q153.536 330.867 153.321 331.038Q153.106 331.209 152.871 331.35Q152.635 331.49 152.383 331.598Q152.131 331.706 151.867 331.78Q151.677 331.833 151.483 331.867Q151.289 331.902 151.092 331.917Q150.896 331.933 150.699 331.93Q150.502 331.926 150.306 331.904Q150.11 331.882 149.917 331.841Q149.724 331.8 149.536 331.741Q149.348 331.682 149.166 331.605Q148.985 331.528 148.812 331.434Q148.638 331.339 148.475 331.229Q148.312 331.119 148.16 330.993Q148.007 330.868 147.868 330.729Q147.729 330.589 147.603 330.437Q147.478 330.285 147.368 330.121Q147.258 329.958 147.164 329.784Q147.07 329.611 146.993 329.43Q146.916 329.248 146.857 329.06Q146.798 328.872 146.757 328.679Q146.716 328.486 146.694 328.29Q146.672 328.094 146.669 327.897Q146.666 327.7 146.682 327.503Q146.697 327.307 146.732 327.113Q146.766 326.919 146.819 326.729Q146.872 326.539 146.943 326.355Q147.014 326.171 147.103 325.995Q147.191 325.818 147.296 325.651Q147.401 325.484 147.521 325.328Q147.642 325.172 147.776 325.028Q147.911 324.885 148.059 324.754Q148.207 324.624 148.367 324.508Q148.527 324.393 148.697 324.293Q148.867 324.194 149.046 324.111Q149.225 324.028 149.411 323.963Z"/>
	<path transform="scale(2 2)" d="M215.91 313.712C218.781 313.925 242.561 338.236 244.439 341.887C244.035 345.318 238.429 349.391 236.176 351.684L218.355 369.585C215.153 370.717 213.564 367.885 215.939 365.116C219.982 360.404 234.39 345.754 238.605 342.837C234.353 336.645 225.675 328.845 220.125 323.293C217.462 320.629 211.074 316.84 215.91 313.712Z"/>
	<path transform="scale(2 2)" d="M289.178 313.712C291.972 314.511 304.641 328.647 307.18 331.243C310.465 334.603 318.7 340.078 314.859 344.468C309.177 350.962 295.597 365.078 289.178 370.273C288.365 370.425 287.543 370.428 286.86 369.891C283.509 367.26 291.82 361.014 293.482 359.374C299.248 353.681 305.5 348 310.73 341.814L297.07 327.769C293.749 324.401 282.181 316.443 289.178 313.712Z"/>
	<path transform="scale(2 2)" d="M252.547 313.712C255.824 313.633 279.092 338.431 281.449 342.541L281.348 342.441L281.575 342.987C279.452 346.65 259.004 365.812 255.093 369.585C252.617 370.505 250.501 368.115 252.255 365.856C254.341 363.169 257.322 360.724 259.767 358.322L275.574 342.837C270.181 336.87 264.516 331.117 258.895 325.365C255.402 321.791 247.686 317.299 252.547 313.712Z"/>
	<path transform="scale(2 2)" d="M131.656 446.745C132.99 445.294 134.795 444.03 136.3 442.74L147.205 433.47C173.756 411.102 161.824 413.735 196.315 413.763L303.748 413.767C309.672 413.766 315.922 414.09 321.768 413.041C343.196 409.193 348.397 392.051 348.383 373.667L348.358 285.251C348.341 281.91 348.185 278.51 348.376 275.176C355.398 282.82 353.74 292.598 353.736 302.269L353.73 374.096C353.747 408.715 352.518 420.01 314.91 420.004L203.553 419.998C171.41 419.983 180.997 416.326 155.958 438.195C150.369 443.078 137.13 459.726 131.656 446.745Z"/>
	<path transform="scale(2 2)" d="M80.4881 412.358C83.0139 411.998 86.7219 413.697 89.5052 413.856C97.3183 414.303 105.301 412.956 113.075 414.376C113.608 416.057 113.922 417.564 114 419.337C102.362 420.111 89.6814 420.242 80.4881 412.358Z"/>
	<path transform="scale(2 2)" d="M259.634 142.324Q260.107 142.269 260.583 142.238Q261.058 142.206 261.534 142.198Q262.011 142.19 262.487 142.205Q262.963 142.22 263.438 142.258Q263.913 142.297 264.385 142.359Q264.858 142.42 265.327 142.505Q265.796 142.59 266.26 142.698Q266.724 142.805 267.182 142.936Q267.64 143.066 268.092 143.219Q268.543 143.371 268.986 143.546Q269.43 143.72 269.864 143.916Q270.298 144.113 270.722 144.33Q271.146 144.547 271.559 144.785Q271.972 145.022 272.373 145.28Q272.773 145.538 273.161 145.815Q273.549 146.092 273.922 146.387Q274.296 146.683 274.654 146.997Q275.013 147.31 275.356 147.641Q275.699 147.972 276.025 148.319Q276.351 148.667 276.66 149.029Q276.969 149.392 277.259 149.77Q277.55 150.147 277.822 150.539Q278.093 150.93 278.346 151.334Q278.598 151.738 278.83 152.154Q279.062 152.57 279.273 152.997Q279.485 153.424 279.675 153.861Q279.865 154.298 280.034 154.744Q280.203 155.189 280.349 155.643Q280.496 156.096 280.62 156.556Q280.744 157.016 280.845 157.481Q280.947 157.947 281.025 158.417Q281.104 158.887 281.159 159.36Q281.214 159.833 281.246 160.309Q281.279 160.784 281.287 161.26Q281.296 161.737 281.281 162.213Q281.267 162.689 281.229 163.164Q281.191 163.639 281.13 164.111Q281.068 164.584 280.984 165.053Q280.9 165.522 280.793 165.986Q280.685 166.45 280.555 166.909Q280.426 167.367 280.273 167.818Q280.121 168.27 279.947 168.713Q279.773 169.157 279.577 169.591Q279.382 170.026 279.165 170.45Q278.948 170.874 278.711 171.287Q278.474 171.701 278.217 172.102Q277.959 172.503 277.683 172.891Q277.406 173.279 277.111 173.652Q276.816 174.026 276.502 174.385Q276.189 174.744 275.859 175.087Q275.528 175.431 275.181 175.757Q274.834 176.084 274.472 176.393Q274.109 176.702 273.732 176.993Q273.355 177.284 272.964 177.556Q272.573 177.828 272.169 178.081Q271.765 178.334 271.349 178.566Q270.933 178.799 270.507 179.011Q270.08 179.223 269.643 179.413Q269.207 179.604 268.761 179.773Q268.316 179.942 267.863 180.089Q267.409 180.236 266.95 180.361Q266.49 180.485 266.024 180.587Q265.559 180.689 265.089 180.768Q264.619 180.847 264.146 180.903Q263.672 180.959 263.196 180.992Q262.72 181.024 262.243 181.033Q261.766 181.042 261.289 181.028Q260.812 181.014 260.337 180.976Q259.861 180.939 259.388 180.878Q258.915 180.817 258.445 180.733Q257.976 180.649 257.511 180.541Q257.046 180.434 256.587 180.305Q256.128 180.175 255.676 180.023Q255.223 179.871 254.779 179.696Q254.335 179.522 253.9 179.326Q253.465 179.131 253.04 178.914Q252.615 178.697 252.201 178.459Q251.788 178.222 251.386 177.964Q250.984 177.707 250.596 177.43Q250.207 177.153 249.833 176.857Q249.459 176.562 249.099 176.248Q248.74 175.934 248.396 175.603Q248.053 175.272 247.726 174.925Q247.399 174.577 247.089 174.214Q246.78 173.851 246.488 173.473Q246.197 173.096 245.925 172.704Q245.652 172.312 245.4 171.908Q245.147 171.503 244.914 171.087Q244.681 170.67 244.47 170.243Q244.258 169.815 244.067 169.378Q243.876 168.94 243.707 168.494Q243.538 168.048 243.392 167.594Q243.245 167.14 243.12 166.68Q242.996 166.219 242.894 165.753Q242.793 165.287 242.714 164.816Q242.635 164.346 242.58 163.872Q242.525 163.398 242.492 162.922Q242.46 162.446 242.452 161.969Q242.443 161.492 242.458 161.015Q242.473 160.538 242.511 160.063Q242.549 159.587 242.61 159.114Q242.672 158.641 242.756 158.172Q242.841 157.702 242.949 157.237Q243.056 156.772 243.186 156.313Q243.317 155.855 243.469 155.403Q243.622 154.951 243.797 154.507Q243.971 154.063 244.167 153.628Q244.364 153.193 244.581 152.768Q244.798 152.343 245.036 151.93Q245.274 151.516 245.532 151.115Q245.79 150.714 246.067 150.326Q246.345 149.937 246.641 149.563Q246.937 149.189 247.251 148.83Q247.565 148.471 247.896 148.128Q248.228 147.784 248.576 147.458Q248.923 147.131 249.287 146.822Q249.65 146.513 250.028 146.222Q250.407 145.931 250.798 145.659Q251.19 145.387 251.595 145.135Q252 144.883 252.417 144.65Q252.834 144.418 253.261 144.207Q253.689 143.995 254.127 143.805Q254.564 143.615 255.01 143.446Q255.457 143.278 255.911 143.132Q256.365 142.985 256.826 142.861Q257.286 142.737 257.753 142.636Q258.219 142.535 258.689 142.457Q259.16 142.379 259.634 142.324ZM264.367 174.415Q264.682 174.352 264.993 174.274Q265.305 174.195 265.612 174.102Q265.919 174.008 266.222 173.899Q266.524 173.791 266.82 173.667Q267.117 173.544 267.407 173.406Q267.697 173.268 267.98 173.116Q268.263 172.964 268.538 172.798Q268.813 172.633 269.08 172.454Q269.347 172.275 269.604 172.083Q269.862 171.891 270.11 171.686Q270.357 171.482 270.595 171.265Q270.832 171.049 271.059 170.821Q271.285 170.594 271.5 170.355Q271.715 170.116 271.918 169.867Q272.121 169.618 272.311 169.36Q272.502 169.101 272.679 168.833Q272.857 168.566 273.021 168.29Q273.185 168.013 273.335 167.73Q273.486 167.446 273.622 167.155Q273.758 166.864 273.88 166.567Q274.001 166.269 274.108 165.966Q274.215 165.664 274.307 165.356Q274.399 165.048 274.475 164.736Q274.552 164.424 274.613 164.109Q274.674 163.794 274.72 163.476Q274.765 163.158 274.795 162.838Q274.825 162.518 274.839 162.197Q274.853 161.876 274.851 161.555Q274.849 161.234 274.832 160.913Q274.814 160.592 274.781 160.273Q274.748 159.953 274.699 159.636Q274.65 159.319 274.585 159.004Q274.52 158.689 274.44 158.378Q274.36 158.067 274.265 157.76Q274.17 157.454 274.06 157.152Q273.949 156.85 273.825 156.554Q273.7 156.258 273.56 155.969Q273.421 155.679 273.267 155.397Q273.114 155.115 272.947 154.841Q272.78 154.566 272.599 154.3Q272.419 154.035 272.226 153.778Q272.032 153.522 271.827 153.275Q271.621 153.028 271.403 152.792Q271.186 152.556 270.957 152.33Q270.728 152.105 270.488 151.891Q270.248 151.677 269.998 151.476Q269.748 151.274 269.488 151.085Q269.229 150.896 268.96 150.72Q268.692 150.544 268.415 150.381Q268.138 150.218 267.853 150.069Q267.568 149.92 267.277 149.786Q266.985 149.651 266.687 149.531Q266.389 149.411 266.086 149.306Q265.782 149.2 265.474 149.11Q265.166 149.02 264.853 148.945Q264.541 148.87 264.225 148.81Q263.909 148.751 263.591 148.707Q263.273 148.663 262.953 148.635Q262.633 148.607 262.312 148.594Q261.991 148.582 261.67 148.585Q261.349 148.589 261.028 148.608Q260.707 148.627 260.388 148.662Q260.069 148.697 259.751 148.748Q259.434 148.799 259.12 148.865Q258.808 148.931 258.499 149.012Q258.19 149.093 257.886 149.189Q257.582 149.285 257.283 149.396Q256.983 149.506 256.69 149.632Q256.396 149.757 256.109 149.896Q255.822 150.036 255.543 150.189Q255.263 150.343 254.991 150.509Q254.719 150.676 254.455 150.856Q254.192 151.036 253.937 151.229Q253.683 151.421 253.438 151.626Q253.194 151.831 252.959 152.048Q252.725 152.264 252.501 152.492Q252.278 152.72 252.066 152.958Q251.854 153.197 251.654 153.445Q251.453 153.694 251.266 153.952Q251.078 154.21 250.903 154.476Q250.728 154.743 250.566 155.018Q250.405 155.294 250.257 155.576Q250.109 155.859 249.974 156.149Q249.84 156.438 249.721 156.734Q249.601 157.03 249.496 157.331Q249.391 157.632 249.301 157.938Q249.21 158.244 249.135 158.555Q249.06 158.865 249 159.178Q248.94 159.492 248.896 159.807Q248.851 160.123 248.822 160.441Q248.793 160.759 248.78 161.078Q248.766 161.397 248.769 161.716Q248.771 162.035 248.789 162.353Q248.806 162.672 248.84 162.989Q248.873 163.307 248.922 163.622Q248.971 163.937 249.035 164.25Q249.099 164.563 249.179 164.872Q249.258 165.181 249.352 165.485Q249.447 165.79 249.556 166.09Q249.665 166.39 249.789 166.684Q249.913 166.978 250.051 167.266Q250.189 167.554 250.341 167.834Q250.493 168.115 250.658 168.388Q250.823 168.661 251.002 168.925Q251.181 169.189 251.372 169.445Q251.563 169.7 251.767 169.946Q251.97 170.192 252.186 170.427Q252.401 170.663 252.627 170.887Q252.854 171.112 253.091 171.325Q253.329 171.539 253.576 171.74Q253.824 171.942 254.081 172.131Q254.338 172.32 254.604 172.496Q254.87 172.672 255.144 172.836Q255.418 172.999 255.7 173.148Q255.982 173.298 256.271 173.433Q256.56 173.569 256.855 173.69Q257.15 173.811 257.451 173.918Q257.751 174.025 258.057 174.116Q258.363 174.208 258.672 174.285Q258.982 174.362 259.295 174.423Q259.608 174.485 259.924 174.531Q260.24 174.577 260.557 174.608Q260.875 174.638 261.194 174.654Q261.512 174.669 261.831 174.668Q262.151 174.668 262.469 174.651Q262.788 174.635 263.105 174.604Q263.423 174.572 263.739 174.525Q264.054 174.478 264.367 174.415Z"/>
	<path transform="scale(2 2)" d="M294.624 143.043C303.531 142.945 313.595 141.996 319.77 149.846C326.144 157.948 324.055 170.38 316.112 176.536C310.592 180.278 295.49 182.63 291.606 179.528C289.719 178.021 290.133 150.857 290.622 146.35C290.891 143.871 292.347 143.385 294.624 143.043ZM296.996 174.121C302.612 174.525 309.149 174.418 313.621 170.568C317.969 165.795 318.937 157.429 313.775 152.81C309.231 148.744 302.637 149.444 296.996 149.485L296.996 174.121Z"/>
	<path transform="scale(2 2)" d="M374.352 168.887C374.361 164.821 372.77 145.591 375.639 143.336C377.098 142.19 379.786 142.794 380.624 144.442C382.061 147.267 380.836 157.484 380.806 160.966C380.766 165.776 382.759 178.208 378.29 180.466C373.661 181.488 370.495 174.424 368.228 171.392C364.198 165.999 359.87 160.723 356.221 155.066C356.18 159.365 356.801 175.036 355.861 177.983C354.267 182.977 350.114 181.153 349.817 176.115C349.607 172.554 349.563 146.312 350.372 144.882C351.141 143.523 352.345 143.375 353.727 143.043C357.2 143.579 371.144 164.778 374.352 168.887Z"/>
	<path transform="scale(2 2)" d="M407.188 143.043C417.009 138.185 428.082 154.336 415.12 149.956C401.648 145.402 392.273 157.353 397.908 168.432C402.446 177.356 416.573 178.088 419.378 166.554C416.315 166.602 404.496 168.45 406.379 162.168C406.65 161.262 407.398 160.913 408.168 160.506C410.316 160.273 419.646 160.275 421.811 160.564C428.729 161.485 424.932 172.674 422.076 175.907C416.005 182.78 402.923 182.461 396.327 176.623C384.227 165.915 390.647 143.737 407.188 143.043Z"/>
	<path transform="scale(2 2)" d="M219.188 143.043C223.02 141.382 237.585 143.903 233.681 149.747C232.127 152.074 230.056 150.929 227.99 150.255C201.311 141.551 201.751 182.262 230.44 172.705C234.244 171.032 240.148 179.512 223.776 180.672C196.972 182.571 195.149 144.288 219.188 143.043Z"/>
	<path transform="scale(2 2)" d="M334.97 143.043C338.043 142.731 338.62 143.762 338.781 146.537C339.118 152.369 341.238 178.272 336.555 180.466C333.32 181.044 332.85 178.652 332.766 176.167C332.567 170.245 330.488 145.534 334.97 143.043Z"/>
</svg>
