<?xml version="1.0" encoding="utf-8" ?>
<svg xmlns="http://www.w3.org/2000/svg" xmlns:xlink="http://www.w3.org/1999/xlink" width="1024" height="1024">
	<path fill="#93E2DB" transform="scale(2 2)" d="M362.459 124.378C354.761 110.932 344.53 111.454 331.24 111.465L312.437 111.481C309.991 111.475 305.025 112.453 303.121 110.494C302.833 109.508 303.015 108.294 304.165 108.037C307.97 107.187 342.852 107.585 346.978 108.443C357.595 110.652 362.099 117.521 367.743 126.006C381.344 134.474 378.95 148.489 378.948 162.375L378.937 200.028C378.934 206.17 378.564 212.556 378.942 218.673C402.625 216.815 433.43 236.288 447.727 255.624C449.734 258.339 451.512 261.355 453.632 263.961C455.007 264.642 456.05 266.293 456.968 267.49C477.38 294.13 480.192 333.496 465.398 363.289C443.137 408.118 387.342 422.581 343.79 400.689C339.839 398.703 325.709 389.962 324.413 386.167C303.47 372.04 292.844 357.896 285.411 333.754C266.601 333.656 255.91 329.395 242.564 342.594L221.334 363.7C217.856 367.189 212.442 373.342 208.482 375.905C201.24 380.59 193.381 374.811 190.886 367.821C186.148 373.099 176.911 370.655 175.044 363.829C173.95 359.829 174.459 354.931 174.46 350.809L174.476 333.754L119.792 333.764C100.654 333.763 84.2196 338.756 71.0082 324.135C52.2489 314.974 49.7316 309.818 49.7455 288.213L49.7559 256.013C49.7431 253.781 48.9443 247.688 50.9805 246.149C51.8952 245.457 53.1871 246.826 53.3995 247.648C54.0421 250.133 53.5092 255.084 53.5113 257.83L53.5145 284.251C53.4991 298.253 52.3613 312.034 68.4931 318.707C68.4196 315.5 66.1638 311.394 66.0318 306.811C65.7188 295.94 65.9757 284.992 65.9758 274.113L65.9734 166.173C65.9653 154.129 62.8461 136.842 72.541 128.32C79.2697 122.404 88.5383 123.733 96.8222 123.751L298.737 123.754C319.943 123.755 341.291 123.174 362.459 124.378ZM434.653 246.277C413.935 229.674 395.785 220.431 367.743 221.99C368.125 233.587 379.059 228.231 390.335 229.673C403.429 231.348 416.034 236.808 427.45 243.316C429.047 244.226 432.763 247.361 434.653 246.277ZM305.913 365.201C306.939 363.378 303.514 358.843 302.56 357.196C298.136 349.558 297.586 340.15 293.971 333.754C292.849 333.734 290.389 333.453 289.572 334.193C292.786 345.342 298.292 356.375 305.913 365.201ZM320.33 320.91C323.312 324.033 327.918 325.641 331.48 328.061C337.497 332.15 344.385 337.765 350.346 341.371C357.411 345.646 357.624 335.479 351.094 333.754C348.751 336.934 344.299 332.009 342.139 330.49C335.15 325.577 327.925 319.651 320.33 315.822C319.561 317.054 320.161 319.506 320.33 320.91Z"/>
	<path fill="#7FDCD4" transform="scale(2 2)" d="M453.632 263.961C455.007 264.642 456.05 266.293 456.968 267.49C477.38 294.13 480.192 333.496 465.398 363.289C443.137 408.118 387.342 422.581 343.79 400.689C339.839 398.703 325.709 389.962 324.413 386.167C327.183 387.347 329.759 388.965 332.411 390.386C357.413 403.782 390.051 403.097 415.242 390.821C456.021 370.947 474.844 323.624 460.86 280.959C458.914 275.023 456.373 269.554 453.632 263.961Z"/>
	<path fill="#040607" transform="scale(2 2)" d="M71.0082 324.135C52.2489 314.974 49.7316 309.818 49.7455 288.213L49.7559 256.013C49.7431 253.781 48.9443 247.688 50.9805 246.149C51.8952 245.457 53.1871 246.826 53.3995 247.648C54.0421 250.133 53.5092 255.084 53.5113 257.83L53.5145 284.251C53.4991 298.253 52.3613 312.034 68.4931 318.707C76.0687 321.856 92.5909 320.3 100.906 320.297L149.171 320.298C158.309 320.291 172.921 317.471 177.403 328.17C179.166 332.378 178.232 338.341 178.304 342.885C178.266 351.938 174.212 367.492 186.309 366.716C188.785 365.254 190.722 362.986 192.717 360.943L214.263 339.62C238.193 315.933 228.914 320.766 261.96 320.34C262.029 320.34 277.469 319.047 272.118 323.449C269.083 325.945 241.007 322.273 235.834 324.712C231.826 326.602 226.983 332.321 223.77 335.485L204.284 354.716C199.919 359.096 195.653 363.906 190.886 367.821C186.148 373.099 176.911 370.655 175.044 363.829C173.95 359.829 174.459 354.931 174.46 350.809L174.476 333.754L119.792 333.764C100.654 333.763 84.2196 338.756 71.0082 324.135Z"/>
	<path fill="#7FDCD4" transform="scale(2 2)" d="M71.0082 324.135C91.884 323.807 112.825 324.132 133.707 324.131L154.032 324.133C161.858 324.134 174.711 322.123 174.476 333.754L119.792 333.764C100.654 333.763 84.2196 338.756 71.0082 324.135Z"/>
	<path fill="#040607" transform="scale(2 2)" d="M365.277 218.673C369.903 218.091 374.324 217.77 378.942 218.673C402.625 216.815 433.43 236.288 447.727 255.624C449.734 258.339 451.512 261.355 453.632 263.961C456.373 269.554 458.914 275.023 460.86 280.959C474.844 323.624 456.021 370.947 415.242 390.821C390.051 403.097 357.413 403.782 332.411 390.386C329.759 388.965 327.183 387.347 324.413 386.167C303.47 372.04 292.844 357.896 285.411 333.754C284.948 331.343 282.83 322.97 283.941 320.962C288.928 317.618 288.533 330.253 289.572 334.193C292.786 345.342 298.292 356.375 305.913 365.201C308.99 369.951 314.37 374.02 318.819 377.369C352.351 402.614 399.36 403.309 431.685 375.198C463.187 347.803 471.474 300.394 449.057 264.776C444.869 258.122 439.821 252.178 434.653 246.277C413.935 229.674 395.785 220.431 367.743 221.99C362.231 222.195 355.982 223.081 350.731 224.833C349.44 225.263 339.993 228.921 342.575 223.868C346.163 220.972 359.625 218.663 365.277 218.673Z"/>
	<path fill="#7FDCD4" transform="scale(2 2)" d="M362.459 124.378C354.761 110.932 344.53 111.454 331.24 111.465L312.437 111.481C309.991 111.475 305.025 112.453 303.121 110.494C302.833 109.508 303.015 108.294 304.165 108.037C307.97 107.187 342.852 107.585 346.978 108.443C357.595 110.652 362.099 117.521 367.743 126.006C381.344 134.474 378.95 148.489 378.948 162.375L378.937 200.028C378.934 206.17 378.564 212.556 378.942 218.673C374.324 217.77 369.903 218.091 365.277 218.673C365.591 210.55 365.354 202.238 365.277 194.101C364.888 190.756 365.262 187.087 365.268 183.694L365.29 150.26C365.291 141.472 366.494 132.513 362.459 124.378Z"/>
	<path fill="#040607" transform="scale(2 2)" d="M362.459 124.378C354.761 110.932 344.53 111.454 331.24 111.465L312.437 111.481C309.991 111.475 305.025 112.453 303.121 110.494C302.833 109.508 303.015 108.294 304.165 108.037C307.97 107.187 342.852 107.585 346.978 108.443C357.595 110.652 362.099 117.521 367.743 126.006C369.396 137.116 369.433 192.659 368.535 194.241C367.953 195.266 366.025 194.404 365.277 194.101C364.888 190.756 365.262 187.087 365.268 183.694L365.29 150.26C365.291 141.472 366.494 132.513 362.459 124.378Z"/>
	<path fill="white" transform="scale(2 2)" d="M178.304 333.754C198.86 333.417 189.64 348.148 192.717 360.943C190.722 362.986 188.785 365.254 186.309 366.716C174.212 367.492 178.266 351.938 178.304 342.885C178.808 340.002 178.259 336.703 178.304 333.754Z"/>
	<path fill="white" transform="scale(2 2)" d="M213.505 244.693C209.297 244.506 211.139 230.637 211.139 226.903L211.166 199.573C211.174 196.918 209.636 186.362 212.382 184.984C215.231 183.555 235.827 184.182 239.376 185.122C243.763 186.283 247.539 189.036 249.848 192.943C260.01 197.874 258.963 207.024 258.949 216.621C258.938 223.657 259.265 230.745 258.191 237.72C253.533 253.429 242.94 251.676 230.461 253.504C223.316 253.448 209.138 255.532 213.505 244.693Z"/>
	<path fill="#93E2DB" transform="scale(2 2)" d="M222.052 203.908C230.358 203.866 240.738 202.192 247.971 206.737C247.82 213.191 248.926 226.864 247.537 232.514C244.905 243.224 232.914 241.166 224.594 241.203C221.438 241.217 217.801 241.731 214.704 241.198C217.074 240.804 219.66 241.07 222.052 241.198L222.052 203.908Z"/>
	<path fill="#040607" transform="scale(2 2)" d="M213.505 244.693C209.297 244.506 211.139 230.637 211.139 226.903L211.166 199.573C211.174 196.918 209.636 186.362 212.382 184.984C215.231 183.555 235.827 184.182 239.376 185.122C243.763 186.283 247.539 189.036 249.848 192.943C247.801 197.542 242.917 190.532 240.408 189.253C236.273 187.145 220.139 188.032 214.704 188.018L214.704 241.198C217.801 241.731 221.438 241.217 224.594 241.203C232.914 241.166 244.905 243.224 247.537 232.514C248.926 226.864 247.82 213.191 247.971 206.737C247.956 204.345 247.974 202.267 248.716 199.974C253.11 201.574 251.234 212.9 251.244 217.033C251.267 226.595 253.609 239.33 242.236 243.57C237.024 245.512 219.985 244.693 213.505 244.693Z"/>
	<path fill="#2EC4B6" transform="scale(2 2)" d="M222.052 196.783C224.908 196.602 227.601 196.527 230.461 196.783C236.012 196.388 242.746 196.545 247.971 198.554C248.173 198.976 248.391 199.654 248.716 199.974C247.974 202.267 247.956 204.345 247.971 206.737C240.738 202.192 230.358 203.866 222.052 203.908C222.251 201.504 222.239 199.188 222.052 196.783Z"/>
	<path fill="#93E2DB" transform="scale(2 2)" d="M230.461 196.783C234.071 196.153 246.689 193.49 247.971 198.554C242.746 196.545 236.012 196.388 230.461 196.783Z"/>
	<path fill="white" transform="scale(2 2)" d="M158.222 210.152C153.907 211.555 154.776 207.591 154.772 204.834C154.76 195.003 155.981 186.941 167.268 184.615C172.712 183.493 182.875 183.606 187.626 186.802C189.929 188.35 195.009 191.888 192.717 194.985C194.08 195.253 195.421 195.618 196.765 195.966C206.957 205.531 200.173 224.756 202.236 235.75C201.862 237.623 201.348 239.388 200.744 241.198C198.128 246.835 192.922 250.637 186.708 251.367C180.059 252.148 167.702 252.762 162.611 248.597C161.212 247.453 157.49 243.06 159.271 241.198C155.103 236.322 152.315 221.192 155.489 217.5C156.415 217.091 157.239 217.259 158.222 217.364C158.085 214.963 158.175 212.554 158.222 210.152Z"/>
	<path fill="#93E2DB" transform="scale(2 2)" d="M164.737 213.424C165.711 213.026 167.488 206.798 169.537 204.995C172.561 202.333 185.667 202.006 190.614 202.264L190.886 202.641L190.901 223.204C190.937 237.093 191.343 241.515 175.798 241.264C171.967 241.203 168.478 241.328 164.737 240.385L164.722 221.804C164.702 219.15 164.256 215.993 164.737 213.424Z"/>
	<path fill="#040607" transform="scale(2 2)" d="M190.886 202.641C190.889 202.147 190.963 201.748 191.086 201.271L192.717 201.302C196.112 202.445 194.688 228.004 194.363 232.5C193.212 248.422 168.298 247.689 159.271 241.198C155.103 236.322 152.315 221.192 155.489 217.5C156.415 217.091 157.239 217.259 158.222 217.364C158.248 225.122 156.132 236.441 164.737 240.385C168.478 241.328 171.967 241.203 175.798 241.264C191.343 241.515 190.937 237.093 190.901 223.204L190.886 202.641Z"/>
	<path fill="#040607" transform="scale(2 2)" d="M158.222 210.152C153.907 211.555 154.776 207.591 154.772 204.834C154.76 195.003 155.981 186.941 167.268 184.615C172.712 183.493 182.875 183.606 187.626 186.802C189.929 188.35 195.009 191.888 192.717 194.985C189.675 195.192 188.084 191.811 185.935 190.134C180.696 186.046 165.715 186.93 161.003 191.911C156.614 196.55 158.633 204.373 158.222 210.152Z"/>
	<path fill="#2EC4B6" transform="scale(2 2)" d="M164.737 213.424C166.802 198.556 163.476 194.54 184.477 196.973C189.641 197.572 189.144 200.902 192.717 201.302L191.086 201.271C190.963 201.748 190.889 202.147 190.886 202.641L190.614 202.264C185.667 202.006 172.561 202.333 169.537 204.995C167.488 206.798 165.711 213.026 164.737 213.424Z"/>
	<defs>
		<linearGradient id="gradient_0" gradientUnits="userSpaceOnUse" x1="308.27917" y1="248.40884" x2="275.96832" y2="182.08597">
			<stop offset="0" stop-color="black"/>
			<stop offset="1" stop-color="#1E2224"/>
		</linearGradient>
	</defs>
	<path fill="url(#gradient_0)" transform="scale(2 2)" d="M270.651 246.277C267.67 244.553 269.192 219.173 269.189 214.754L269.168 197.292C269.164 193.419 268.619 188.489 269.64 184.785C273.233 183.268 293.909 184.321 299.067 184.321C304.4 184.32 315.767 181.469 314.582 188.018C316.039 188.074 317.668 188.027 318.722 189.214C325.972 197.373 305.313 195.653 302.624 195.966C295.001 196.737 287.745 196.037 280.135 195.966C280.103 197.298 280.022 198.645 280.135 199.974L280.135 201.302C280.074 205.904 279.952 210.57 280.135 215.166C283.401 215.159 303.651 214.645 304.995 215.756C305.509 216.721 305.164 217.712 304.851 218.673C311.14 219.454 312.355 225.308 306.23 225.896C303.35 226.173 300.241 225.939 297.343 225.934L280.135 225.921L280.135 242.642C277.677 242.538 275.107 242.303 272.663 242.642C276.119 242.963 279.808 242.661 283.288 242.65L304.198 242.62C308.571 242.614 314.619 240.777 315.387 245.617C319.068 246.164 320.456 250.367 318.101 252.508C314.156 253.33 275.848 253.635 273.342 252.365C271.523 251.442 271.014 248.085 270.651 246.277Z"/>
	<path fill="white" transform="scale(2 2)" d="M314.582 188.018C316.039 188.074 317.668 188.027 318.722 189.214C325.972 197.373 305.313 195.653 302.624 195.966C295.001 196.737 287.745 196.037 280.135 195.966C280.103 197.298 280.022 198.645 280.135 199.974L280.135 201.302C280.074 205.904 279.952 210.57 280.135 215.166C277.652 215.077 275.148 215.155 272.663 215.166L272.663 188.018L301.33 188.024C305.68 188.028 310.266 188.397 314.582 188.018Z"/>
	<path fill="white" transform="scale(2 2)" d="M304.851 218.673C311.14 219.454 312.355 225.308 306.23 225.896C303.35 226.173 300.241 225.939 297.343 225.934L280.135 225.921L280.135 242.642C277.677 242.538 275.107 242.303 272.663 242.642L272.663 218.673L293.001 218.681C296.942 218.691 300.914 218.834 304.851 218.673Z"/>
	<path fill="white" transform="scale(2 2)" d="M315.387 245.617C319.068 246.164 320.456 250.367 318.101 252.508C314.156 253.33 275.848 253.635 273.342 252.365C271.523 251.442 271.014 248.085 270.651 246.277L299.781 246.286C303.144 246.287 312.843 247.328 315.387 245.617Z"/>
	<path fill="white" transform="scale(2 2)" d="M109.253 240.385C104.007 233.844 105.548 224.776 105.541 216.961C105.528 203.447 102.314 184.92 121.611 184.019C129.832 183.635 142.5 186.613 142.774 196.783C157.011 210.648 146.567 215.456 142.993 210.97C142.178 209.946 141.919 208.014 141.598 206.737C138.097 207.951 137.171 204.741 137.862 201.951C138.697 201.702 139.545 201.507 140.392 201.302C140.228 200.011 139.787 198.744 139.429 197.495C138.106 197.941 136.821 198.412 135.423 198.554C136.217 199.701 137.035 200.827 137.862 201.951C128.623 201.214 121.974 199.712 116.267 208.08C116.291 207.186 116.416 206.183 116.267 205.305C115.262 217.02 117.368 230.028 116.267 241.198C124.082 241.323 133.498 243.195 137.064 234.467C138.088 231.961 139.573 228.772 141.598 232.571C150.541 237.18 145.63 248.735 137.677 251.051C132.089 252.678 119.74 252.051 114.679 249.145C112.291 247.775 107.757 243.646 109.253 240.385Z"/>
	<path fill="#040607" transform="scale(2 2)" d="M109.253 240.385C104.007 233.844 105.548 224.776 105.541 216.961C105.528 203.447 102.314 184.92 121.611 184.019C129.832 183.635 142.5 186.613 142.774 196.783L142.496 196.862C139.463 197.7 138.75 194.483 137.126 192.506C131.076 185.14 111.708 185.5 109.65 196.496C108.687 201.638 109.24 209.958 109.239 215.418C109.237 224.748 106.309 236.648 116.267 241.198C124.082 241.323 133.498 243.195 137.064 234.467C138.088 231.961 139.573 228.772 141.598 232.571C150.541 237.18 145.63 248.735 137.677 251.051C132.089 252.678 119.74 252.051 114.679 249.145C112.291 247.775 107.757 243.646 109.253 240.385Z"/>
	<path fill="white" transform="scale(2 2)" d="M141.598 232.571C150.541 237.18 145.63 248.735 137.677 251.051C132.089 252.678 119.74 252.051 114.679 249.145C112.291 247.775 107.757 243.646 109.253 240.385C117.858 248.597 138.005 247.743 141.598 232.571Z"/>
	<path fill="#2EC4B6" transform="scale(2 2)" d="M116.267 205.305C117.251 196.052 128.851 192.779 135.423 198.554C136.217 199.701 137.035 200.827 137.862 201.951C128.623 201.214 121.974 199.712 116.267 208.08C116.291 207.186 116.416 206.183 116.267 205.305Z"/>
	<path fill="#040607" transform="scale(2 2)" d="M140.392 201.302C141.449 203.112 141.511 204.703 141.598 206.737C138.097 207.951 137.171 204.741 137.862 201.951C138.697 201.702 139.545 201.507 140.392 201.302Z"/>
	<path fill="white" transform="scale(2 2)" d="M357.92 350.473C354.357 349.647 356.035 346.554 356.824 343.98C361.889 327.448 367.969 311.162 373.398 294.737L379.847 275.207C380.471 273.3 382.673 261.026 386.125 264.608C386.88 266.424 385.805 268.533 385.232 270.309C396.791 271.512 388.406 283.815 385.501 292.396C379.011 311.569 372.701 332.422 365.704 351.234C364.487 354.507 364.409 356.717 360.558 356.177C358.94 354.742 356.773 352.761 357.92 350.473Z"/>
	<path fill="#040607" transform="scale(2 2)" d="M357.92 350.473C354.357 349.647 356.035 346.554 356.824 343.98C361.889 327.448 367.969 311.162 373.398 294.737L379.847 275.207C380.471 273.3 382.673 261.026 386.125 264.608C386.88 266.424 385.805 268.533 385.232 270.309C379.65 288.067 373.489 305.608 367.557 323.248L362.078 340.003C361.121 342.947 360.332 348.375 357.92 350.473Z"/>
	<path fill="#040607" transform="scale(2 2)" d="M320.33 315.822C319.434 314.892 314.312 312.134 315.311 310.425L315.535 310.394C315.943 308.879 346.015 284.968 349.53 283.106C351.287 283.087 351.755 284.077 352.143 285.709C357.691 286.44 358.622 289.692 354.372 293.628C346.653 300.775 335.216 309.147 326.773 315.822C330.546 317.511 349.526 330.01 351.094 333.754C348.751 336.934 344.299 332.009 342.139 330.49C335.15 325.577 327.925 319.651 320.33 315.822Z"/>
	<path fill="white" transform="scale(2 2)" d="M352.143 285.709C357.691 286.44 358.622 289.692 354.372 293.628C346.653 300.775 335.216 309.147 326.773 315.822C324.768 313.947 322.412 312.518 320.33 310.724C322.838 308.404 325.83 306.399 328.539 304.309L342.021 293.747C345.41 291.118 348.96 288.583 352.143 285.709Z"/>
	<path fill="white" transform="scale(2 2)" d="M429.669 309.322C431.021 309.932 431.298 310.33 431.443 311.738L433.056 312.365C435.583 312.886 437.097 314.308 438.16 316.561C435.459 320.521 412.606 335.163 407.238 339.441C404.094 341.947 398.799 338.667 400.978 335.243C401.118 334.237 403.678 333.033 404.439 332.165C403.639 332.162 402.088 333.544 401.298 333.983L400.978 333.754C399.619 334.48 398.896 334.597 397.529 333.637C396.22 330.462 421.976 314.129 425.55 311.738C426.879 310.785 428.169 309.975 429.669 309.322Z"/>
	<path fill="#040607" transform="scale(2 2)" d="M429.669 309.322C431.021 309.932 431.298 310.33 431.443 311.738C428.524 314.464 424.826 316.674 421.556 318.98L404.587 331.128C403.731 331.75 401.472 332.964 400.978 333.754C399.619 334.48 398.896 334.597 397.529 333.637C396.22 330.462 421.976 314.129 425.55 311.738C426.879 310.785 428.169 309.975 429.669 309.322Z"/>
	<path fill="#CBF3F0" transform="scale(2 2)" d="M431.443 311.738L433.056 312.365C430.349 314.932 427.072 316.992 424.029 319.146L406.982 330.956C405.374 332.061 402.621 334.788 400.978 335.243C401.118 334.237 403.678 333.033 404.439 332.165C403.639 332.162 402.088 333.544 401.298 333.983L400.978 333.754C401.472 332.964 403.731 331.75 404.587 331.128L421.556 318.98C424.826 316.674 428.524 314.464 431.443 311.738Z"/>
	<path fill="white" transform="scale(2 2)" d="M97.3262 137.244C99.6482 137.115 119.051 135.544 117.358 140.808C113.909 151.528 92.5826 134.577 86.8042 153.409C85.8703 157.232 86.1975 161.371 86.2172 165.286C72.8917 172.775 76.7981 140.035 97.3262 137.244Z"/>
	<path fill="#040607" transform="scale(2 2)" d="M400.978 288.812C399.6 287.896 393.622 284.042 398.664 282.8C400.542 283.278 429.424 303.671 431.499 305.854C431.803 307.488 430.851 308.315 429.669 309.322L429.669 309.322C428.169 309.975 426.879 310.785 425.55 311.738C418.963 306.358 404.051 298.503 399.562 293.067C399.888 291.56 400.285 290.193 400.978 288.812Z"/>
	<path fill="white" transform="scale(2 2)" d="M400.978 288.812L419.24 301.599C422.802 304.089 426.561 306.254 429.669 309.322L429.669 309.322C428.169 309.975 426.879 310.785 425.55 311.738C418.963 306.358 404.051 298.503 399.562 293.067C399.888 291.56 400.285 290.193 400.978 288.812Z"/>
	<path fill="#2EC4B6" transform="scale(2 2)" d="M226.446 254.986C232.464 254.481 242.082 256.066 247.076 254.918C255.129 253.068 254.951 246.059 258.941 240.385C258.463 249.338 259.313 258.408 248.781 260.867C244.987 261.752 217.088 263.124 214.786 260.699C208.558 254.142 224.347 254.888 226.446 254.986Z"/>
	<path fill="#2EC4B6" transform="scale(2 2)" d="M271.658 255.496L300.535 255.489C305.26 255.489 310.594 255.009 315.234 255.787C319.316 256.471 318.268 260.315 315.387 261.735C308.969 262.18 302.244 261.732 295.795 261.732L280.025 261.736C277.766 261.738 275.428 261.882 273.179 261.77C268.66 261.543 266.979 256.547 271.658 255.496Z"/>
	<path fill="#2EC4B6" transform="scale(2 2)" d="M281.614 197.495C285.886 197.649 290.176 196.926 294.444 196.9C298.588 196.875 302.775 197.733 306.921 197.495C310.283 197.53 322.61 196.979 324.469 199.075C330 205.307 309.744 203.905 308.836 203.905L283.565 203.908C280.731 204.142 280.383 204.266 280.135 201.302L280.135 199.974C280.268 198.486 280.04 197.796 281.614 197.495Z"/>
	<path fill="#7FDCD4" transform="scale(2 2)" d="M280.135 199.974C280.268 198.486 280.04 197.796 281.614 197.495C281.487 199.894 280.447 203.53 283.565 203.908C280.731 204.142 280.383 204.266 280.135 201.302L280.135 199.974Z"/>
	<path fill="#2EC4B6" transform="scale(2 2)" d="M202.236 235.75C203.767 238.154 203.269 251.012 202.622 254.081C200.527 264.004 179.493 262.181 173.063 260.499C167.929 259.156 166.244 256.272 164.737 251.641C165.998 252.604 167.379 253.843 168.886 254.353C174.5 256.252 194.192 257.803 198.957 251.476C201.056 248.689 203.123 244.351 200.744 241.198C201.348 239.388 201.862 237.623 202.236 235.75Z"/>
	<path fill="#2EC4B6" transform="scale(2 2)" d="M117.124 253.047C125.842 253.655 129.277 255.428 140.222 255.003C142.879 254.9 152.587 250.2 149.405 257.952C145.457 262.365 118.908 263.349 117.124 253.047Z"/>
	<path fill="white" transform="scale(2 2)" d="M82.4078 176.452C89.0396 176.657 86.2516 198.715 85.7947 199.66C85.3358 200.61 84.0893 200.966 83.1868 201.302C76.5384 201.353 78.8835 181.475 79.7136 178.608C80.0456 177.461 81.4344 176.946 82.4078 176.452Z"/>
	<path fill="#040607" transform="scale(2 2)" d="M71.966 107.75C73.7423 107.55 75.719 107.716 77.513 107.72L255.882 107.75C260.141 107.75 283.248 107.271 285.506 108.073C290.111 113.289 271.178 111.48 268.986 111.481L149.405 111.483L80.3058 111.464C57.8644 111.409 53.4681 119.067 53.5124 138.754L53.5262 201.798C53.5229 205.969 56.0455 227.519 50.6392 226.335C48.6187 223.803 49.7505 214.462 49.7583 211.193L49.751 148.799C49.7407 129.918 48.0498 111.593 71.966 107.75Z"/>
</svg>
